<svg width="465" height="465" viewBox="0 0 465 465" fill="none" xmlns="http://www.w3.org/2000/svg">
<circle cx="232.342" cy="232.342" r="229.282" transform="rotate(0.769994 232.342 232.342)" fill="url(#paint0_linear_1201_2051)"/>
<circle cx="232.342" cy="232.342" r="160.368" transform="rotate(0.769994 232.342 232.342)" fill="url(#paint1_linear_1201_2051)" stroke="url(#paint2_linear_1201_2051)" stroke-width="1.2881"/>
<g opacity="0.3">
<path d="M221.401 176.554L263.527 252.275C264.019 253.158 263.73 254.271 262.871 254.805L212.737 285.931C211.96 286.414 210.949 286.272 210.334 285.594L187.803 260.732C186.982 259.826 187.221 258.392 188.291 257.801L287.22 203.214C288.27 202.635 288.524 201.238 287.745 200.326L270.089 179.653C269.561 179.034 268.696 178.822 267.941 179.126L178.821 215.011C177.491 215.547 177.216 217.309 178.318 218.225L273.763 297.548" stroke="white" stroke-width="7.57663"/>
<circle cx="217.721" cy="168.454" r="9.4708" transform="rotate(0.769994 217.721 168.454)" stroke="white" stroke-width="5.68247"/>
<path d="M281.548 278.036C278.529 276.283 276.154 277.824 275.006 279.223C274.725 279.566 274.641 280.02 274.703 280.459L276.453 292.736C276.565 293.525 275.648 294.041 275.032 293.534C274.688 293.251 274.187 293.272 273.868 293.583L269.34 297.99C268.918 298.401 268.327 298.592 267.744 298.507L255.146 296.654C254.721 296.592 254.28 296.666 253.937 296.925C250.839 299.261 251.653 303.927 254.195 305.011C254.313 305.061 254.44 305.089 254.568 305.106L282 308.735C282.177 308.759 282.358 308.76 282.533 308.719C284.412 308.28 285.76 306.328 286.377 305.045C286.525 304.736 286.556 304.388 286.5 304.051L282.33 279.229C282.248 278.737 281.979 278.286 281.548 278.036Z" fill="white"/>
</g>
<defs>
<linearGradient id="paint0_linear_1201_2051" x1="232.342" y1="3.0605" x2="232.342" y2="461.624" gradientUnits="userSpaceOnUse">
<stop stop-color="#3E66E2"/>
<stop offset="1" stop-color="#384BD5"/>
</linearGradient>
<linearGradient id="paint1_linear_1201_2051" x1="232.342" y1="71.3299" x2="232.342" y2="393.355" gradientUnits="userSpaceOnUse">
<stop stop-color="#3E66E2"/>
<stop offset="1" stop-color="#384BD5"/>
</linearGradient>
<linearGradient id="paint2_linear_1201_2051" x1="232.342" y1="71.3299" x2="232.342" y2="393.355" gradientUnits="userSpaceOnUse">
<stop stop-color="#4C79F8"/>
<stop offset="1" stop-color="#394ED7"/>
</linearGradient>
</defs>
</svg>
