<svg width="56" height="93" viewBox="0 0 56 93" fill="none" xmlns="http://www.w3.org/2000/svg">
<path d="M28.1871 92.833C40.6739 92.833 50.8635 91.949 50.8635 90.8661C50.8635 89.7832 40.6739 88.8992 28.1871 88.8992C15.6968 88.8992 5.51074 89.7832 5.51074 90.8661C5.51074 91.949 15.6968 92.833 28.1871 92.833Z" fill="#E3E3E3"/>
<path d="M21.7573 66.8478C21.7573 66.8478 16.1228 73.2065 21.0579 81.6813C21.0579 81.6813 21.4236 78.0954 22.8366 77.3356C23.9372 76.7427 24.9669 77.4457 24.8816 78.9404C24.8461 79.5795 24.768 80.0623 24.5444 81.1985C23.5254 86.3892 29.6711 90.7775 29.6711 90.7775C26.7208 84.1311 30.5907 84.3548 30.0652 79.1463C29.8025 76.551 32.2239 76.6859 33.0866 78.5534C33.6937 79.8671 33.8855 81.6387 33.8855 81.6387C38.7637 73.132 33.0866 66.8123 33.0866 66.8123L27.4237 66.83L21.7573 66.8478Z" fill="url(#paint0_linear_1222_488)"/>
<path d="M10.7444 30.4348C10.7444 30.4348 -5.16847 49.1241 1.73705 73.7319C1.73705 73.7319 7.84374 58.7351 18.4772 53.8746L14.7812 43.4009L10.7444 30.4348Z" fill="url(#paint1_linear_1222_488)"/>
<path d="M44.3598 30.3247C44.3598 30.3247 60.3969 48.9075 53.6547 73.5579C53.6547 73.5579 47.4486 58.6036 36.7832 53.8106L40.4082 43.3156L44.3598 30.3247Z" fill="url(#paint2_linear_1222_488)"/>
<path d="M38.9912 8.70618C43.1593 14.891 45.8363 24.2853 45.8718 34.8123C45.9038 44.6114 43.6386 53.4412 39.9959 59.626C32.0714 61.3338 23.8487 61.987 14.7987 59.7077C11.117 53.5513 8.79501 44.7321 8.76305 34.933C8.72755 24.406 11.3442 14.9939 15.4698 8.78429C23.309 7.9606 31.1483 7.9819 38.9912 8.70618Z" fill="url(#paint3_radial_1222_488)"/>
<path d="M27.2641 18.5977C33.7827 18.5764 39.0834 23.8452 39.1047 30.3637C39.1296 36.8823 33.8608 42.1866 27.3422 42.2079C20.8237 42.2292 15.5194 36.9604 15.4981 30.4419C15.4768 23.9233 20.7456 18.6226 27.2641 18.5977Z" fill="url(#paint4_linear_1222_488)"/>
<path d="M15.4697 8.7844C23.5185 -1.95556 28.9719 -3.83372 38.9911 8.7063C31.1495 8.73233 23.309 8.75837 15.4697 8.7844Z" fill="url(#paint5_linear_1222_488)"/>
<path d="M27.2718 20.8345C32.5548 20.8168 36.8543 25.0879 36.8721 30.3709C36.8898 35.6539 32.6187 39.9534 27.3357 39.9712C22.0491 39.9889 17.7532 35.7178 17.7354 30.4348C17.7177 25.1518 21.9888 20.8523 27.2718 20.8345Z" fill="white"/>
<path d="M14.7988 59.7077C14.7988 59.7077 17.7599 64.0818 21.1967 67.3447L33.6373 67.3056C37.0066 64.0641 39.9002 59.7504 39.9818 59.6296C32.0609 61.3338 23.8417 61.9836 14.7988 59.7077Z" fill="url(#paint6_linear_1222_488)"/>
<path d="M18.5693 64.5719C19.3788 65.5056 20.27 66.4643 21.1966 67.3448L33.6372 67.3057C34.6349 66.3435 35.59 65.2926 36.4456 64.2808C33.4349 65.6441 20.6108 65.2926 18.5693 64.5719Z" fill="url(#paint7_linear_1222_488)"/>
<path d="M27.2719 21.5411C32.1679 21.5233 36.1515 25.4785 36.1657 30.3745C36.1834 35.2705 32.2283 39.2505 27.3323 39.2682C22.4363 39.2824 18.4563 35.3273 18.4385 30.4348C18.4208 25.5388 22.3795 21.5553 27.2719 21.5411Z" fill="url(#paint8_linear_1222_488)"/>
<path d="M34.3157 24.9814C34.6921 25.4714 35.0222 26.0004 35.2921 26.5614L25.7202 39.1262C25.0208 39.002 24.3497 38.7925 23.7178 38.512L34.3157 24.9814Z" fill="url(#paint9_linear_1222_488)"/>
<path d="M30.261 22.0452C31.4575 22.4712 32.5403 23.1458 33.4386 24.0085L22.7945 38.0362C21.6051 37.3332 20.5932 36.3604 19.8477 35.1994L30.261 22.0452Z" fill="url(#paint10_linear_1222_488)"/>
<defs>
<linearGradient id="paint0_linear_1222_488" x1="9.54246" y1="90.882" x2="10.4122" y2="65.9755" gradientUnits="userSpaceOnUse">
<stop stop-color="#FFF200"/>
<stop offset="0.7" stop-color="#EC008C"/>
<stop offset="1" stop-color="#384BD5"/>
</linearGradient>
<linearGradient id="paint1_linear_1222_488" x1="-27.1688" y1="18.4211" x2="-10.2387" y2="4.21509" gradientUnits="userSpaceOnUse">
<stop stop-color="#EC008C"/>
<stop offset="1" stop-color="#384BD5"/>
</linearGradient>
<linearGradient id="paint2_linear_1222_488" x1="15.3286" y1="92.6176" x2="-5.40424" y2="72.5961" gradientUnits="userSpaceOnUse">
<stop stop-color="#EC008C"/>
<stop offset="1" stop-color="#384BD5"/>
</linearGradient>
<radialGradient id="paint3_radial_1222_488" cx="0" cy="0" r="1" gradientUnits="userSpaceOnUse" gradientTransform="translate(39.1913 14.5263) rotate(111) scale(50.1248)">
<stop stop-color="#E183B6"/>
<stop offset="0.19" stop-color="#EC008C"/>
<stop offset="0.42" stop-color="#C8158D"/>
<stop offset="1" stop-color="#384BD5"/>
</radialGradient>
<linearGradient id="paint4_linear_1222_488" x1="15.4975" y1="40.2867" x2="15.4975" y2="5.00274" gradientUnits="userSpaceOnUse">
<stop stop-color="#EE4097"/>
<stop offset="1" stop-color="#384BD5"/>
</linearGradient>
<linearGradient id="paint5_linear_1222_488" x1="24.8256" y1="10.935" x2="25.6264" y2="-0.516969" gradientUnits="userSpaceOnUse">
<stop stop-color="#384BD5"/>
<stop offset="1" stop-color="#EC008C"/>
</linearGradient>
<linearGradient id="paint6_linear_1222_488" x1="28.8008" y1="60.8201" x2="28.5797" y2="67.1516" gradientUnits="userSpaceOnUse">
<stop stop-color="#2E3192"/>
<stop offset="1" stop-color="#EC008C"/>
</linearGradient>
<linearGradient id="paint7_linear_1222_488" x1="27.8438" y1="63.0652" x2="27.6959" y2="71.5388" gradientUnits="userSpaceOnUse">
<stop stop-color="#384BD5"/>
<stop offset="1" stop-color="#EC008C"/>
</linearGradient>
<linearGradient id="paint8_linear_1222_488" x1="18.4068" y1="38.363" x2="17.6833" y2="17.6437" gradientUnits="userSpaceOnUse">
<stop stop-color="white"/>
<stop offset="1" stop-color="#EC008C"/>
</linearGradient>
<linearGradient id="paint9_linear_1222_488" x1="20.8331" y1="38.2818" x2="20.0988" y2="17.2552" gradientUnits="userSpaceOnUse">
<stop stop-color="white"/>
<stop offset="1" stop-color="#F06CA9"/>
</linearGradient>
<linearGradient id="paint10_linear_1222_488" x1="17.2519" y1="38.5065" x2="16.5204" y2="17.5599" gradientUnits="userSpaceOnUse">
<stop stop-color="white"/>
<stop offset="1" stop-color="#F06CA9"/>
</linearGradient>
</defs>
</svg>
